/* XPM */
static const char* img_xpm[] = {
/* width height ncolors chars_per_pixel */
"16 16 98 2",
"   c #ccc0c0",
" . c #c74040",
" + c #c98080",
" @ c #c96d6d",
" # c #c86b6b",
" $ c #c98484",
" % c #c98585",
" & c #ccbaba",
" * c #c74a4a",
" = c #c74d4d",
" - c #c63939",
" ; c #c97e7e",
" > c #ccbdbd",
" , c #c50808",
" ' c #c74343",
" ) c #c50d0d",
" ! c #c98686",
" ~ c #ca8888",
" { c #ccc9c9",
" ] c #ccc8c8",
" ^ c #cbb0b0",
" / c #c40202",
" ( c #c40505",
" _ c #cbacac",
" : c #c51515",
" < c #c74f4f",
" [ c #c62323",
" } c #ca9292",
" | c #cccaca",
" 1 c #c51414",
" 2 c #c52020",
" 3 c #c85c5c",
" 4 c #c86464",
" 5 c #c74b4b",
" 6 c #cba5a5",
" 7 c #ccbcbc",
" 8 c #ccc4c4",
" 9 c #cbadad",
" 0 c #cbaaaa",
" a c #c51010",
" b c #ccc7c7",
" c c #c62828",
" d c #c51313",
" e c #c63030",
" f c #c52121",
" g c #c97a7a",
" h c #cccbcb",
" i c #c97b7b",
" j c #c50e0e",
" k c #c40303",
" l c #ca9999",
" m c #c51d1d",
" n c #ccc2c2",
" o c #ca9797",
" p c #c97979",
" q c #cbaeae",
" r c #ccc6c6",
" s c #ccb9b9",
" t c #c85757",
" u c #c51212",
" v c #c74e4e",
" w c #ca8989",
" x c #c74c4c",
" y c #c74242",
" z c #c86a6a",
" A c #cbb6b6",
" B c #cccccc",
" C c #c85f5f",
" D c #cbb1b1",
" E c #cba6a6",
" F c #c75353",
" G c #c51818",
" H c #c63434",
" I c #c40606",
" J c #c63333",
" K c #c97272",
" L c #cbb4b4",
" M c #c40404",
" N c #c96e6e",
" O c #c62f2f",
" P c #c85555",
" Q c #cbafaf",
" R c #cba8a8",
" S c #c62626",
" T c #c50a0a",
" U c #c50f0f",
" V c #ca9b9b",
" W c #c63232",
" X c #ca9595",
" Y c #c50909",
" Z c #c51111",
" ` c #c73c3c",
".  c #c74747",
".. c #c97777",
".+ c #ccbfbf",
".@ c #c50c0c",
".# c #cbb3b3",
".$ c #cba4a4",
" B B B B B B { A 9   B B B B B B",
" B B B B B r w O G < E B B B B B",
" B B B B B q < M / Z # ] B B B B",
" B B B B B ^ v / / a # { B B B B",
" B 7.. < ~.# z T / W X D @ F o ]",
" 8 ; m I : P g H T F ! ` Y , - l",
" & 3 k / /.@ J H d W c ( / / [ $",
" b g : / / / I ( k I ( / / / e X",
" B 7 ;.  y < ' d / m = F . = !  ",
" B B ]   L K f U u ) ` } > n b B",
" B B B 0 t 1 M e 5 : ( S p   B B",
" B B   N a / / * + e / M 2 i | B",
" B B s 3 / / j 4 6 x k / I C ] B",
" B B b % [ M H o  .. G ( H X B B",
" B B B n R l _ b B.+.$ V Q r B B",
" B B B B h | B B B B h | B B B B",
};
